<svg id="Layer_1" data-name="Layer 1" xmlns="http://www.w3.org/2000/svg" viewBox="0 0 50 50"><defs><style>.cls-1{fill:none;}.cls-2{fill:red;}</style></defs><title>down_vote</title><rect class="cls-1" width="50" height="50"/><rect class="cls-1" width="50" height="50"/><path class="cls-2" d="M44,22.25c-6.81,0-6,4-8.44,6.91C32.77,32.54,27.36,34,26.5,42c-0.35,3.27-3.63,1.75-4.66,0-1.67-2.78.22-6.27,1.64-9.31,1.22-2.62,1-5.45-2.29-5-3.92.53-6.21,1.19-9.57,1.19C9.33,28.9,8,27.36,8,26.08a19.85,19.85,0,0,1,.31-2.75A3.52,3.52,0,0,1,6,20.21,3.94,3.94,0,0,1,8,17a3.29,3.29,0,0,1-2-2.89c0-2.36,2.72-3.36,2.72-3.36A4.62,4.62,0,0,1,8,8.21C8,6.91,7.87,4,20.09,4,36.34,4,33.19,7.87,44,7.87V22.25Z"/></svg>