<svg id="Layer_1" data-name="Layer 1" xmlns="http://www.w3.org/2000/svg" viewBox="0 0 50 50"><defs><style>.cls-1{fill:none;}.cls-2{fill:#24a81d;}</style></defs><title>up_vote</title><rect class="cls-1" width="50" height="50"/><rect class="cls-1" width="50" height="50"/><path class="cls-2" d="M6,25.65c6.81,0,6-4,8.44-6.91,2.78-3.39,8.2-4.82,9.06-12.84,0.35-3.27,3.63-1.75,4.66,0,1.67,2.78-.22,6.27-1.64,9.31-1.22,2.62-1,5.45,2.29,5C32.73,19.65,35,19,38.38,19,40.67,19,42,20.54,42,21.83a19.85,19.85,0,0,1-.31,2.75A3.52,3.52,0,0,1,44,27.7a3.94,3.94,0,0,1-2,3.25,3.29,3.29,0,0,1,2,2.89c0,2.36-2.72,3.36-2.72,3.36A4.62,4.62,0,0,1,42,39.7c0,1.29.13,4.23-12.09,4.23C13.66,43.93,16.81,40,6,40V25.65Z"/></svg>